<?xml version="1.0" standalone="no"?>
<!DOCTYPE svg PUBLIC "-//W3C//DTD SVG 20010904//EN"
 "http://www.w3.org/TR/2001/REC-SVG-20010904/DTD/svg10.dtd">
<svg version="1.0" xmlns="http://www.w3.org/2000/svg"
 width="400.000000pt" height="400.000000pt" viewBox="0 0 400.000000 400.000000"
 preserveAspectRatio="xMidYMid meet">

<g transform="translate(0.000000,400.000000) scale(0.100000,-0.100000)"
fill="#000000" stroke="none">
<path d="M2517 3522 c-25 -28 -46 -95 -57 -187 -16 -130 -51 -225 -83 -225 -7
0 -18 14 -24 30 -20 54 -69 35 -80 -33 -4 -27 -1 -39 17 -54 25 -24 22 -59
-12 -151 -23 -61 -20 -60 -128 -8 -77 37 -127 96 -164 196 l-24 65 -12 -30
c-28 -73 -31 -213 -4 -256 4 -8 -1 -9 -17 -4 -47 15 -95 45 -138 87 l-44 43 6
-73 c4 -41 3 -72 -2 -72 -12 0 -37 64 -46 118 -6 37 -4 47 15 67 18 19 21 30
15 57 -14 65 -54 79 -80 28 -9 -16 -19 -30 -24 -30 -30 0 -66 94 -81 215 -13
104 -35 177 -59 199 -24 21 -67 12 -83 -18 -17 -31 -12 -122 11 -214 22 -85
26 -132 13 -132 -5 0 -15 11 -22 25 -20 37 -59 44 -82 15 -20 -24 -17 -52 12
-110 24 -48 47 -66 100 -80 52 -14 120 -78 138 -130 l12 -32 -31 6 c-17 3 -99
13 -181 22 -83 8 -172 22 -197 31 -63 21 -138 60 -161 83 -29 29 -25 16 17
-59 104 -189 266 -364 356 -386 15 -4 27 -9 27 -11 0 -3 -11 -27 -25 -54 -45
-88 -76 -216 -82 -337 -4 -74 -10 -113 -17 -113 -25 0 -160 -72 -215 -115
-129 -99 -249 -259 -299 -397 -21 -58 -26 -91 -26 -160 1 -82 16 -148 35 -148
5 0 9 15 10 33 0 17 6 50 14 72 l13 40 1 -55 c1 -36 10 -74 27 -109 24 -54 99
-155 119 -164 7 -3 11 19 11 62 0 36 4 79 8 96 7 29 8 28 30 -27 48 -119 99
-167 204 -194 60 -15 70 -22 94 -59 26 -40 27 -42 12 -86 -20 -57 -14 -151 14
-206 49 -95 121 -133 214 -114 61 14 79 23 129 68 l38 35 64 -16 c95 -24 331
-22 422 4 l70 19 18 -25 c26 -34 93 -71 154 -84 74 -16 122 -1 171 55 69 78
87 195 46 293 -20 50 0 75 74 91 113 25 167 74 217 196 20 49 24 54 30 35 4
-12 7 -56 7 -97 0 -40 4 -73 9 -71 4 2 33 34 63 72 62 78 85 135 87 210 l1 51
13 -40 c8 -22 14 -55 14 -72 2 -74 35 -17 46 78 14 126 -46 285 -162 429 -87
108 -186 191 -290 242 -46 23 -83 46 -83 52 0 6 7 46 15 89 30 156 16 283 -44
399 l-29 58 46 34 c94 68 204 202 280 337 18 31 32 59 32 61 0 3 -40 -15 -89
-39 -62 -31 -110 -47 -158 -54 -136 -19 -327 -38 -331 -34 -3 2 7 24 22 49 31
53 75 89 131 106 50 16 72 34 96 82 25 49 25 104 0 118 -24 13 -51 3 -75 -28
-32 -40 -35 -7 -10 91 13 51 24 122 24 159 0 60 -3 69 -26 87 -33 26 -46 26
-67 3z m63 -31 c16 -31 12 -96 -15 -207 -25 -104 -25 -128 1 -138 21 -8 40 2
52 30 15 32 50 32 58 -1 8 -31 -32 -104 -66 -122 -14 -7 -46 -22 -72 -34 -61
-27 -95 -62 -125 -126 -21 -44 -29 -53 -58 -59 -18 -3 -42 -3 -53 0 -20 7 -20
7 -1 62 32 91 35 137 10 171 -18 24 -20 34 -12 56 14 35 24 34 38 -3 9 -24 17
-30 41 -30 16 0 34 6 39 13 23 28 52 129 67 230 19 129 37 177 65 177 11 0 25
-9 31 -19z m-1094 -18 c13 -22 28 -86 49 -212 9 -51 27 -115 41 -142 21 -42
28 -49 55 -49 25 0 32 6 41 30 13 39 32 34 36 -10 3 -24 -2 -38 -14 -47 -14
-10 -15 -21 -10 -64 4 -28 14 -71 22 -96 14 -42 14 -46 -3 -59 -10 -7 -24 -11
-31 -9 -8 3 -22 5 -32 5 -13 0 -26 17 -43 53 -33 73 -65 104 -137 132 -34 13
-69 30 -77 37 -20 16 -53 83 -53 107 0 28 40 39 56 15 25 -36 34 -43 49 -37
31 11 32 37 9 138 -26 110 -31 194 -12 213 17 17 41 15 54 -5z m875 -1066 c73
-49 87 -132 33 -197 -82 -97 -244 -33 -244 96 0 98 126 158 211 101z m-570
-10 c68 -46 76 -142 15 -203 -85 -85 -231 -27 -231 91 0 105 128 172 216 112z
m266 -97 c63 -28 85 -70 80 -147 -4 -53 -11 -72 -51 -131 -65 -98 -70 -101
-103 -61 -115 135 -139 252 -66 321 44 41 80 46 140 18z m411 -733 c4 24 63
81 90 86 34 7 83 -2 76 -14 -3 -5 -1 -9 4 -9 16 0 33 -50 23 -68 -8 -14 -2
-23 27 -42 20 -14 39 -28 42 -31 3 -4 14 -19 25 -34 11 -15 25 -32 31 -39 6
-6 9 -17 6 -25 -3 -8 0 -11 6 -7 5 3 13 -1 16 -10 4 -10 2 -13 -7 -8 -9 5 -9
4 1 -7 6 -7 12 -21 12 -31 0 -10 4 -18 9 -18 4 0 7 -18 6 -40 -1 -22 0 -38 4
-36 3 2 6 -24 6 -57 -1 -68 4 -65 -70 -53 -21 3 -77 27 -85 36 -3 3 -18 14
-33 23 -16 10 -42 38 -59 62 -17 24 -34 42 -38 40 -3 -2 -12 -21 -19 -42 -7
-22 -21 -50 -32 -63 -16 -21 -19 -22 -19 -7 0 10 -5 15 -10 12 -8 -5 -7 -11 1
-21 6 -7 9 -20 6 -29 -4 -8 -1 -17 4 -21 7 -4 8 -30 4 -73 -4 -36 -8 -73 -8
-81 0 -8 -4 -20 -9 -27 -5 -7 -7 -17 -3 -22 3 -6 -9 -3 -27 7 -18 9 -35 20
-36 25 -2 4 -7 5 -12 2 -5 -3 -14 0 -22 7 -7 7 -25 19 -40 27 -15 8 -25 17
-23 21 3 5 -2 11 -11 14 -8 3 -13 2 -10 -3 6 -9 -65 -42 -129 -60 -94 -26
-296 -7 -377 35 -18 9 -28 11 -28 4 0 -6 -4 -8 -10 -5 -5 3 -10 1 -10 -4 0 -6
-7 -11 -15 -11 -8 0 -29 -9 -46 -19 -51 -31 -62 -11 -62 107 0 54 -1 89 -4 80
-2 -10 -8 -18 -13 -18 -13 0 -69 85 -83 126 l-13 35 -34 -46 c-33 -44 -48 -58
-35 -32 4 6 1 5 -7 -3 -7 -9 -28 -22 -45 -29 -18 -7 -30 -17 -27 -22 2 -5 -11
-8 -30 -7 -19 1 -43 -5 -52 -13 -31 -26 -42 -6 -36 69 3 31 5 69 6 84 1 14 5
24 10 20 5 -3 6 9 3 27 -4 18 -3 30 2 27 9 -6 24 30 21 53 -1 7 3 10 8 7 6 -3
8 2 5 14 -4 16 -2 19 11 14 12 -5 15 -2 9 12 -5 13 -3 15 7 9 10 -6 12 -4 7 9
-4 10 -3 15 3 11 6 -3 10 -2 10 3 0 5 11 15 25 22 13 7 22 16 20 20 -3 5 7 11
23 15 15 4 22 9 15 12 -15 6 -6 61 14 85 18 20 65 32 91 24 10 -4 37 -33 60
-65 28 -40 58 -69 92 -88 27 -15 50 -33 50 -40 0 -18 40 -3 41 16 0 9 0 41 0
71 l-1 55 17 -31 c49 -84 161 -174 218 -174 8 0 16 17 20 43 8 48 34 117 44
117 10 0 62 -121 68 -158 4 -22 10 -31 19 -28 7 3 18 -3 23 -12 6 -9 11 -12
11 -6 0 5 -4 14 -9 20 -6 5 3 29 25 64 19 30 38 69 43 85 l9 30 15 -36 c9 -20
25 -39 36 -42 12 -3 18 0 15 7 -4 10 12 34 104 157 l27 36 6 -66 c3 -36 6 -61
7 -54z m191 -840 c2 -81 1 -84 -25 -101 -22 -15 -28 -16 -36 -5 -10 15 -11 15
6 -38 5 -17 1 -26 -19 -39 -26 -17 -130 -29 -120 -15 2 5 -7 13 -21 20 -35 16
-44 13 -14 -4 30 -17 21 -19 -15 -3 -16 7 -24 17 -20 26 4 11 2 12 -7 4 -9 -7
-19 -5 -35 8 -19 15 -20 19 -7 24 8 3 25 1 37 -5 18 -9 20 -9 10 2 -15 15 -17
33 -4 24 5 -3 16 2 24 10 9 8 20 15 26 15 6 0 11 5 11 11 0 5 5 7 10 4 6 -4 8
-10 6 -14 -3 -4 2 -8 10 -8 10 0 11 4 4 11 -16 16 -12 24 20 41 17 9 30 13 30
9 0 -4 7 -1 15 6 8 6 13 15 12 19 -1 4 11 19 28 33 27 24 31 24 43 9 11 -14
12 -13 2 7 -9 18 -8 27 1 38 19 23 25 3 28 -89z m-1220 14 c18 -17 46 -39 62
-48 32 -19 39 -36 12 -26 -19 7 -18 5 11 -17 13 -10 17 -10 12 -2 -9 15 -7 15
33 1 17 -6 31 -15 31 -20 0 -5 5 -8 12 -6 7 1 12 -3 13 -10 0 -6 4 -15 9 -20
5 -5 6 -3 2 5 -8 13 19 18 28 4 9 -16 -10 -31 -36 -28 -15 2 -25 -1 -22 -6 3
-5 12 -7 20 -4 8 3 14 3 14 0 0 -11 -95 -44 -128 -44 -38 0 -102 32 -102 51 0
5 5 20 11 32 9 20 8 19 -9 -2 l-20 -24 -7 24 c-4 13 -7 26 -6 28 2 2 -3 7 -9
11 -18 11 -25 87 -9 107 9 11 10 14 2 9 -14 -8 -17 11 -7 39 6 14 9 14 28 -3
11 -11 36 -34 55 -51z m1111 -15 c0 -3 -4 -8 -10 -11 -5 -3 -10 -1 -10 4 0 6
5 11 10 11 6 0 10 -2 10 -4z m80 -131 c-7 -9 -15 -13 -18 -10 -3 2 1 11 8 20
7 9 15 13 18 10 3 -2 -1 -11 -8 -20z"/>
<path d="M2360 1461 c0 -6 4 -13 10 -16 6 -3 7 1 4 9 -7 18 -14 21 -14 7z"/>
<path d="M1552 1410 c0 -14 2 -19 5 -12 2 6 2 18 0 25 -3 6 -5 1 -5 -13z"/>
<path d="M1730 1400 c0 -11 4 -20 9 -20 5 0 7 9 4 20 -3 11 -7 20 -9 20 -2 0
-4 -9 -4 -20z"/>
<path d="M2520 1395 c0 -8 4 -15 10 -15 5 0 7 7 4 15 -4 8 -8 15 -10 15 -2 0
-4 -7 -4 -15z"/>
<path d="M1541 1364 c0 -11 3 -14 6 -6 3 7 2 16 -1 19 -3 4 -6 -2 -5 -13z"/>
<path d="M1892 1335 c0 -16 2 -22 5 -12 2 9 2 23 0 30 -3 6 -5 -1 -5 -18z"/>
<path d="M2422 1298 c18 -31 35 -54 36 -53 7 6 -30 73 -49 91 -13 11 -8 -2 13
-38z"/>
<path d="M2268 1323 c7 -3 16 -2 19 1 4 3 -2 6 -13 5 -11 0 -14 -3 -6 -6z"/>
<path d="M1660 1305 c-6 -8 -10 -19 -8 -24 1 -6 8 1 15 14 13 28 11 31 -7 10z"/>
<path d="M1891 1274 c0 -11 3 -14 6 -6 3 7 2 16 -1 19 -3 4 -6 -2 -5 -13z"/>
<path d="M1620 1221 c0 -6 4 -13 10 -16 6 -3 7 1 4 9 -7 18 -14 21 -14 7z"/>
<path d="M1869 1148 c-3 -22 -1 -34 4 -29 5 5 7 21 5 37 -3 27 -4 26 -9 -8z"/>
<path d="M2220 1138 c0 -9 5 -20 10 -23 13 -8 13 5 0 25 -8 13 -10 13 -10 -2z"/>
<path d="M1835 1080 c-10 -11 -16 -22 -14 -24 2 -2 12 7 22 20 22 29 17 32 -8
4z"/>
<path d="M2260 1061 c0 -6 4 -13 10 -16 6 -3 7 1 4 9 -7 18 -14 21 -14 7z"/>
<path d="M1795 1030 c-3 -5 -1 -10 4 -10 6 0 11 5 11 10 0 6 -2 10 -4 10 -3 0
-8 -4 -11 -10z"/>
<path d="M2357 589 c7 -7 15 -10 18 -7 3 3 -2 9 -12 12 -14 6 -15 5 -6 -5z"/>
<path d="M2520 550 l-25 -8 28 -1 c15 -1 27 4 27 9 0 6 -1 10 -2 9 -2 -1 -14
-5 -28 -9z"/>
<path d="M1374 771 c20 -22 26 -25 26 -13 0 4 -10 13 -22 21 -23 14 -23 14 -4
-8z"/>
<path d="M1370 730 c-9 -6 -10 -10 -3 -10 6 0 15 5 18 10 8 12 4 12 -15 0z"/>
<path d="M1458 543 c7 -3 16 -2 19 1 4 3 -2 6 -13 5 -11 0 -14 -3 -6 -6z"/>
</g>
</svg>
